<svg width="17" height="16" viewBox="0 0 17 16" fill="none" xmlns="http://www.w3.org/2000/svg">
<mask id="mask0_197_11780" style="mask-type:alpha" maskUnits="userSpaceOnUse" x="0" y="0" width="17" height="16">
<rect x="0.5" width="16" height="16" fill="#D9D9D9"/>
</mask>
<g mask="url(#mask0_197_11780)">
<path d="M4.10039 13.6004C3.77039 13.6004 3.48789 13.4829 3.25289 13.2479C3.01789 13.0129 2.90039 12.7304 2.90039 12.4004V3.60039C2.90039 3.27039 3.01789 2.98789 3.25289 2.75289C3.48789 2.51789 3.77039 2.40039 4.10039 2.40039H12.9004C13.2304 2.40039 13.5129 2.51789 13.7479 2.75289C13.9829 2.98789 14.1004 3.27039 14.1004 3.60039H8.90039C8.23372 3.60039 7.66706 3.83372 7.20039 4.30039C6.73372 4.76706 6.50039 5.33372 6.50039 6.00039V10.0004C6.50039 10.6671 6.73372 11.2337 7.20039 11.7004C7.66706 12.1671 8.23372 12.4004 8.90039 12.4004H14.1004C14.1004 12.7337 13.9829 13.0171 13.7479 13.2504C13.5129 13.4837 13.2304 13.6004 12.9004 13.6004H4.10039ZM8.90039 11.2004C8.57039 11.2004 8.28789 11.0829 8.05289 10.8479C7.81789 10.6129 7.70039 10.3304 7.70039 10.0004V6.00039C7.70039 5.67039 7.81789 5.38789 8.05289 5.15289C8.28789 4.91789 8.57039 4.80039 8.90039 4.80039H13.7004C14.0304 4.80039 14.3129 4.91789 14.5479 5.15289C14.7829 5.38789 14.9004 5.67039 14.9004 6.00039V10.0004C14.9004 10.3304 14.7829 10.6129 14.5479 10.8479C14.3129 11.0829 14.0304 11.2004 13.7004 11.2004H8.90039ZM11.3004 9.00039C11.5782 9.00039 11.8143 8.90317 12.0087 8.70872C12.2032 8.51428 12.3004 8.27817 12.3004 8.00039C12.3004 7.72261 12.2032 7.4865 12.0087 7.29206C11.8143 7.09761 11.5782 7.00039 11.3004 7.00039C11.0226 7.00039 10.7865 7.09761 10.5921 7.29206C10.3976 7.4865 10.3004 7.72261 10.3004 8.00039C10.3004 8.27817 10.3976 8.51428 10.5921 8.70872C10.7865 8.90317 11.0226 9.00039 11.3004 9.00039Z" fill="white"/>
</g>
</svg>
