<svg width="17" height="16" viewBox="0 0 17 16" fill="none" xmlns="http://www.w3.org/2000/svg">
<g clip-path="url(#clip0_458_423)">
<mask id="mask0_458_423" style="mask-type:alpha" maskUnits="userSpaceOnUse" x="-2" y="-2" width="21" height="20">
<rect x="-1.5" y="-2" width="20" height="20" fill="#D9D9D9"/>
</mask>
<g mask="url(#mask0_458_423)">
<path d="M7.74999 6.87496L6.08332 8.54163C5.93055 8.6944 5.75346 8.77079 5.55207 8.77079C5.35068 8.77079 5.1736 8.6944 5.02082 8.54163C4.86805 8.38885 4.79166 8.21176 4.79166 8.01038C4.79166 7.80899 4.86805 7.6319 5.02082 7.47913L7.97916 4.52079C8.13193 4.36801 8.30555 4.29163 8.49999 4.29163C8.69443 4.29163 8.86805 4.36801 9.02082 4.52079L11.9792 7.47913C12.1319 7.6319 12.2083 7.80552 12.2083 7.99996C12.2083 8.1944 12.1319 8.36802 11.9792 8.52079C11.8264 8.67357 11.6493 8.74996 11.4479 8.74996C11.2465 8.74996 11.0694 8.67357 10.9167 8.52079L9.24999 6.87496V12.25C9.24999 12.4583 9.17707 12.6354 9.03124 12.7812C8.88541 12.927 8.70832 13 8.49999 13C8.29166 13 8.11457 12.927 7.96874 12.7812C7.82291 12.6354 7.74999 12.4583 7.74999 12.25V6.87496Z" fill="white"/>
</g>
</g>
<defs>
<clipPath id="clip0_458_423">
<rect width="16" height="16" fill="white" transform="translate(0.5)"/>
</clipPath>
</defs>
</svg>
