<svg width="16" height="16" viewBox="0 0 16 16" fill="none" xmlns="http://www.w3.org/2000/svg">
<mask id="mask0_457_8298" style="mask-type:alpha" maskUnits="userSpaceOnUse" x="0" y="0" width="16" height="16">
<rect width="16" height="16" fill="#D9D9D9"/>
</mask>
<g mask="url(#mask0_457_8298)">
<path d="M7.39987 7.09987L6.06654 8.4332C5.94431 8.55543 5.80265 8.61654 5.64154 8.61654C5.48043 8.61654 5.33876 8.55543 5.21654 8.4332C5.09431 8.31098 5.0332 8.16931 5.0332 8.0082C5.0332 7.84709 5.09431 7.70543 5.21654 7.5832L7.5832 5.21654C7.70543 5.09431 7.84431 5.0332 7.99987 5.0332C8.15543 5.0332 8.29431 5.09431 8.41654 5.21654L10.7832 7.5832C10.9054 7.70543 10.9665 7.84431 10.9665 7.99987C10.9665 8.15543 10.9054 8.29431 10.7832 8.41654C10.661 8.53876 10.5193 8.59987 10.3582 8.59987C10.1971 8.59987 10.0554 8.53876 9.9332 8.41654L8.59987 7.09987V11.3999C8.59987 11.5665 8.54154 11.7082 8.42487 11.8249C8.3082 11.9415 8.16654 11.9999 7.99987 11.9999C7.8332 11.9999 7.69154 11.9415 7.57487 11.8249C7.4582 11.7082 7.39987 11.5665 7.39987 11.3999V7.09987Z" fill="#FF9500"/>
</g>
</svg>
