<svg width="40" height="40" viewBox="0 0 40 40" fill="none" xmlns="http://www.w3.org/2000/svg">
<mask id="mask0_197_11838" style="mask-type:alpha" maskUnits="userSpaceOnUse" x="0" y="0" width="40" height="40">
<rect width="40" height="40" fill="#D9D9D9"/>
</mask>
<g mask="url(#mask0_197_11838)">
<path d="M9.63379 20.0632C9.63379 20.5729 9.66559 21.0667 9.72921 21.5444C9.79309 22.0219 9.88782 22.4832 10.0134 22.9282C10.1284 23.3587 10.1131 23.7829 9.96754 24.2007C9.82226 24.6185 9.55615 24.9249 9.16921 25.1199C8.77532 25.3218 8.37407 25.3425 7.96546 25.1819C7.55684 25.0214 7.28351 24.7396 7.14546 24.3365C6.9099 23.6362 6.73976 22.9337 6.63504 22.229C6.53004 21.5243 6.47754 20.8024 6.47754 20.0632C6.47754 16.3657 7.79629 13.1862 10.4338 10.5249C13.0716 7.86347 16.2338 6.53277 19.9205 6.53277H21.2155L19.1871 4.50444C18.9216 4.23888 18.7893 3.91889 18.7905 3.54444C18.7916 3.17 18.927 2.85013 19.1967 2.58486C19.4623 2.3193 19.7868 2.18652 20.1705 2.18652C20.5543 2.18652 20.8789 2.3193 21.1442 2.58486L25.5834 6.99611C25.8989 7.31138 26.0567 7.68305 26.0567 8.11111C26.0567 8.53888 25.8989 8.91055 25.5834 9.22611L21.1721 13.6374C20.9066 13.9026 20.5774 14.0353 20.1846 14.0353C19.7916 14.0353 19.4623 13.9026 19.1967 13.6374C18.927 13.3718 18.7932 13.0408 18.7955 12.6444C18.7977 12.2483 18.9314 11.9175 19.1967 11.6519L21.1596 9.68902H19.9434C17.1092 9.68902 14.6824 10.705 12.663 12.7369C10.6435 14.7686 9.63379 17.2107 9.63379 20.0632ZM30.3663 20.0132C30.3663 19.5079 30.3356 19.0153 30.2742 18.5353C30.2125 18.0556 30.1167 17.5862 29.9867 17.1274C29.8575 16.6968 29.8646 16.2726 30.008 15.8549C30.1513 15.4371 30.4164 15.1307 30.8034 14.9357C31.1928 14.7335 31.5866 14.711 31.9846 14.8682C32.3827 15.0254 32.653 15.3024 32.7955 15.699C33.0518 16.4057 33.2371 17.1172 33.3513 17.8336C33.4655 18.5497 33.5225 19.2762 33.5225 20.0132C33.5225 23.7151 32.2038 26.8985 29.5663 29.5632C26.9285 32.2279 23.7685 33.5603 20.0863 33.5603H18.7292L20.7475 35.5786C21.0175 35.8442 21.1514 36.1642 21.1492 36.5386C21.147 36.9131 21.0131 37.2329 20.7475 37.4982C20.4775 37.7637 20.1513 37.8965 19.7688 37.8965C19.3863 37.8965 19.0623 37.7637 18.7967 37.4982L14.358 33.0869C14.0424 32.7717 13.8852 32.4017 13.8863 31.9769C13.8874 31.5525 14.0446 31.1825 14.358 30.8669L18.8067 26.4282C19.0678 26.1626 19.3907 26.0282 19.7755 26.0249C20.1602 26.0215 20.4875 26.1526 20.7575 26.4182C21.0231 26.6879 21.1559 27.0142 21.1559 27.3969C21.1559 27.7794 21.0231 28.1033 20.7575 28.3686L18.7292 30.3974H20.0567C22.8909 30.3974 25.3177 29.3808 27.3371 27.3478C29.3566 25.315 30.3663 22.8701 30.3663 20.0132Z" fill="white"/>
</g>
</svg>
