<svg width="24" height="18" viewBox="0 0 24 18" fill="none" xmlns="http://www.w3.org/2000/svg">
<path d="M8.0002 12.8486L20.2002 0.648633C20.5669 0.281966 20.9919 0.0986328 21.4752 0.0986328C21.9585 0.0986328 22.3835 0.281966 22.7502 0.648633C23.1169 1.0153 23.3002 1.4403 23.3002 1.92363C23.3002 2.40697 23.1169 2.83197 22.7502 3.19863L9.2502 16.6986C8.88353 17.0653 8.45853 17.2486 7.9752 17.2486C7.49186 17.2486 7.06686 17.0653 6.7002 16.6986L1.2502 11.2486C0.883529 10.882 0.700195 10.457 0.700195 9.97363C0.700195 9.4903 0.883529 9.0653 1.2502 8.69863C1.61686 8.33197 2.04186 8.14863 2.5252 8.14863C3.00853 8.14863 3.43353 8.33197 3.8002 8.69863L8.0002 12.8486Z" fill="white"/>
</svg>
