<svg width="16" height="16" viewBox="0 0 16 16" fill="none" xmlns="http://www.w3.org/2000/svg">
<mask id="mask0_177_5622" style="mask-type:alpha" maskUnits="userSpaceOnUse" x="0" y="0" width="16" height="16">
<rect width="16" height="16" fill="#D9D9D9"/>
</mask>
<g mask="url(#mask0_177_5622)">
<path d="M0.799999 13V10.8C0.799999 10.4666 0.916666 10.1833 1.15 9.94995C1.38333 9.71662 1.66667 9.59995 2 9.59995H4.21667C4.41667 9.59995 4.6 9.64717 4.76667 9.74162C4.93333 9.83606 5.07778 9.96106 5.2 10.1166C5.52222 10.5833 5.92778 10.9472 6.41667 11.2083C6.90555 11.4694 7.43333 11.6 8 11.6C8.56667 11.6 9.09444 11.4694 9.58333 11.2083C10.0722 10.9472 10.4778 10.5833 10.8 10.1166C10.9222 9.96106 11.0667 9.83606 11.2333 9.74162C11.4 9.64717 11.5833 9.59995 11.7833 9.59995H14C14.3333 9.59995 14.6167 9.71662 14.85 9.94995C15.0833 10.1833 15.2 10.4666 15.2 10.8V13C15.2 13.1666 15.1417 13.3083 15.025 13.425C14.9083 13.5416 14.7667 13.6 14.6 13.6H11C10.8333 13.6 10.6917 13.5416 10.575 13.425C10.4583 13.3083 10.4 13.1666 10.4 13V12.1C10.0556 12.3555 9.675 12.5361 9.25833 12.6416C8.84167 12.7472 8.42222 12.8 8 12.8C7.57778 12.8 7.16111 12.7472 6.75 12.6416C6.33889 12.5361 5.95555 12.3555 5.6 12.1V13C5.6 13.1666 5.54167 13.3083 5.425 13.425C5.30833 13.5416 5.16667 13.6 5 13.6H1.4C1.23333 13.6 1.09167 13.5416 0.974999 13.425C0.858333 13.3083 0.799999 13.1666 0.799999 13ZM8 11C7.53333 11 7.1 10.8916 6.7 10.675C6.3 10.4583 5.96667 10.1611 5.7 9.78328C5.54444 9.57217 5.36111 9.39995 5.15 9.26662C4.93889 9.13328 4.70555 9.05551 4.45 9.03328C4.97222 8.67773 5.53611 8.41662 6.14167 8.24995C6.74722 8.08328 7.36667 7.99995 8 7.99995C8.63333 7.99995 9.25278 8.08328 9.85833 8.24995C10.4639 8.41662 11.0278 8.67773 11.55 9.03328C11.2944 9.05551 11.0611 9.13328 10.85 9.26662C10.6389 9.39995 10.4556 9.57217 10.3 9.78328C10.0333 10.1611 9.7 10.4583 9.3 10.675C8.9 10.8916 8.46667 11 8 11ZM2.8 8.79995C2.24444 8.79995 1.77222 8.60551 1.38333 8.21662C0.994444 7.82773 0.799999 7.35551 0.799999 6.79995C0.799999 6.2444 0.994444 5.77217 1.38333 5.38328C1.77222 4.9944 2.24444 4.79995 2.8 4.79995C3.35555 4.79995 3.82778 4.9944 4.21667 5.38328C4.60555 5.77217 4.8 6.2444 4.8 6.79995C4.8 7.35551 4.60555 7.82773 4.21667 8.21662C3.82778 8.60551 3.35555 8.79995 2.8 8.79995ZM13.2 8.79995C12.6444 8.79995 12.1722 8.60551 11.7833 8.21662C11.3944 7.82773 11.2 7.35551 11.2 6.79995C11.2 6.2444 11.3944 5.77217 11.7833 5.38328C12.1722 4.9944 12.6444 4.79995 13.2 4.79995C13.7556 4.79995 14.2278 4.9944 14.6167 5.38328C15.0056 5.77217 15.2 6.2444 15.2 6.79995C15.2 7.35551 15.0056 7.82773 14.6167 8.21662C14.2278 8.60551 13.7556 8.79995 13.2 8.79995ZM8 7.19995C7.44444 7.19995 6.97222 7.00551 6.58333 6.61662C6.19444 6.22773 6 5.75551 6 5.19995C6 4.6444 6.19444 4.17217 6.58333 3.78328C6.97222 3.3944 7.44444 3.19995 8 3.19995C8.55555 3.19995 9.02778 3.3944 9.41667 3.78328C9.80555 4.17217 10 4.6444 10 5.19995C10 5.75551 9.80555 6.22773 9.41667 6.61662C9.02778 7.00551 8.55555 7.19995 8 7.19995Z" fill="white"/>
</g>
</svg>
