<svg width="16" height="16" viewBox="0 0 16 16" fill="none" xmlns="http://www.w3.org/2000/svg">
<mask id="mask0_795_3730" style="mask-type:alpha" maskUnits="userSpaceOnUse" x="0" y="0" width="16" height="16">
<rect width="16" height="16" fill="#D9D9D9"/>
</mask>
<g mask="url(#mask0_795_3730)">
<path d="M8.00026 12.7L10.5336 10.1666C10.6558 10.0444 10.7975 9.98331 10.9586 9.98331C11.1197 9.98331 11.2614 10.0444 11.3836 10.1666C11.5058 10.2889 11.5669 10.4305 11.5669 10.5916C11.5669 10.7528 11.5058 10.8944 11.3836 11.0166L8.85026 13.55C8.61693 13.7833 8.33359 13.9 8.00026 13.9C7.66693 13.9 7.38359 13.7833 7.15026 13.55L4.61693 11.0166C4.4947 10.8944 4.43637 10.7528 4.44193 10.5916C4.44748 10.4305 4.51137 10.2889 4.63359 10.1666C4.75582 10.0444 4.89748 9.98331 5.05859 9.98331C5.2197 9.98331 5.36137 10.0444 5.48359 10.1666L8.00026 12.7ZM8.00026 3.29998L5.46693 5.83331C5.3447 5.95553 5.20304 6.01664 5.04193 6.01664C4.88082 6.01664 4.73915 5.95553 4.61693 5.83331C4.4947 5.71109 4.43359 5.56942 4.43359 5.40831C4.43359 5.2472 4.4947 5.10553 4.61693 4.98331L7.15026 2.44998C7.38359 2.21664 7.66693 2.09998 8.00026 2.09998C8.33359 2.09998 8.61693 2.21664 8.85026 2.44998L11.3836 4.98331C11.5058 5.10553 11.5669 5.24442 11.5669 5.39998C11.5669 5.55553 11.5058 5.69442 11.3836 5.81664C11.2614 5.93886 11.1197 5.99998 10.9586 5.99998C10.7975 5.99998 10.6558 5.93886 10.5336 5.81664L8.00026 3.29998Z" fill="white" fill-opacity="0.6"/>
</g>
</svg>
