<svg width="17" height="16" viewBox="0 0 17 16" fill="none" xmlns="http://www.w3.org/2000/svg">
<g clip-path="url(#clip0_458_585)">
<mask id="mask0_458_585" style="mask-type:alpha" maskUnits="userSpaceOnUse" x="-2" y="-2" width="21" height="20">
<rect x="-1.5" y="-2" width="20" height="20" fill="#D9D9D9"/>
</mask>
<g mask="url(#mask0_458_585)">
<path d="M7.75 8.75H4.25C4.0375 8.75 3.85938 8.67854 3.71563 8.53562C3.57188 8.39271 3.5 8.21562 3.5 8.00437C3.5 7.79313 3.57188 7.61458 3.71563 7.46875C3.85938 7.32292 4.0375 7.25 4.25 7.25H7.75V3.75C7.75 3.5375 7.82146 3.35937 7.96438 3.21562C8.10729 3.07187 8.28438 3 8.49563 3C8.70688 3 8.88542 3.07187 9.03125 3.21562C9.17708 3.35937 9.25 3.5375 9.25 3.75V7.25H12.75C12.9625 7.25 13.1406 7.32146 13.2844 7.46438C13.4281 7.60729 13.5 7.78438 13.5 7.99563C13.5 8.20688 13.4281 8.38542 13.2844 8.53125C13.1406 8.67708 12.9625 8.75 12.75 8.75H9.25V12.25C9.25 12.4625 9.17854 12.6406 9.03562 12.7844C8.89271 12.9281 8.71562 13 8.50437 13C8.29313 13 8.11458 12.9281 7.96875 12.7844C7.82292 12.6406 7.75 12.4625 7.75 12.25V8.75Z" fill="white"/>
</g>
</g>
<defs>
<clipPath id="clip0_458_585">
<rect width="16" height="16" fill="white" transform="translate(0.5)"/>
</clipPath>
</defs>
</svg>
