<svg width="48" height="48" viewBox="0 0 48 48" fill="none" xmlns="http://www.w3.org/2000/svg">
<path fill-rule="evenodd" clip-rule="evenodd" d="M12.5021 12.5021C13.1716 11.8326 14.257 11.8326 14.9265 12.5021L24 21.5756L33.0735 12.5021C33.743 11.8326 34.8284 11.8326 35.4979 12.5021C36.1674 13.1716 36.1674 14.257 35.4979 14.9265L26.4244 24L35.4979 33.0735C36.1674 33.743 36.1674 34.8284 35.4979 35.4979C34.8284 36.1674 33.743 36.1674 33.0735 35.4979L24 26.4244L14.9265 35.4979C14.257 36.1674 13.1716 36.1674 12.5021 35.4979C11.8326 34.8284 11.8326 33.743 12.5021 33.0735L21.5756 24L12.5021 14.9265C11.8326 14.257 11.8326 13.1716 12.5021 12.5021Z" fill="white"/>
</svg>
