<svg width="17" height="16" viewBox="0 0 17 16" fill="none" xmlns="http://www.w3.org/2000/svg">
<g clip-path="url(#clip0_748_6242)">
<mask id="mask0_748_6242" style="mask-type:alpha" maskUnits="userSpaceOnUse" x="-2" y="-2" width="21" height="20">
<rect x="-1.5" y="-2" width="20" height="20" fill="#D9D9D9"/>
</mask>
<g mask="url(#mask0_748_6242)">
<path d="M6.75 5C6.5375 5 6.35938 4.92854 6.21563 4.78563C6.07188 4.64271 6 4.46563 6 4.25438C6 4.04313 6.07188 3.86458 6.21563 3.71875C6.35938 3.57292 6.5375 3.5 6.75 3.5H10.25C10.4625 3.5 10.6406 3.57146 10.7844 3.71437C10.9281 3.85729 11 4.03437 11 4.24562C11 4.45687 10.9281 4.63542 10.7844 4.78125C10.6406 4.92708 10.4625 5 10.25 5H6.75ZM3.99563 16C3.58188 16 3.22917 15.8527 2.9375 15.5581C2.64583 15.2635 2.5 14.9094 2.5 14.4956C2.5 14.0819 2.64729 13.7292 2.94188 13.4375C3.23646 13.1458 3.59062 13 4.00437 13C4.41813 13 4.77083 13.1473 5.0625 13.4419C5.35417 13.7365 5.5 14.0906 5.5 14.5044C5.5 14.9181 5.35271 15.2708 5.05813 15.5625C4.76354 15.8542 4.40938 16 3.99563 16ZM12.9956 16C12.5819 16 12.2292 15.8527 11.9375 15.5581C11.6458 15.2635 11.5 14.9094 11.5 14.4956C11.5 14.0819 11.6473 13.7292 11.9419 13.4375C12.2365 13.1458 12.5906 13 13.0044 13C13.4181 13 13.7708 13.1473 14.0625 13.4419C14.3542 13.7365 14.5 14.0906 14.5 14.5044C14.5 14.9181 14.3527 15.2708 14.0581 15.5625C13.7635 15.8542 13.4094 16 12.9956 16ZM1.29167 1.5H0.25C0.0375 1.5 -0.140625 1.42854 -0.284375 1.28563C-0.428125 1.14271 -0.5 0.965625 -0.5 0.754375C-0.5 0.543125 -0.428125 0.364583 -0.284375 0.21875C-0.140625 0.0729167 0.0375 0 0.25 0H1.77083C1.92361 0 2.05903 0.0416667 2.17708 0.125C2.29514 0.208333 2.38889 0.319444 2.45833 0.458333L5.5 7.5H11.7708L13.9375 2.45833C14.0069 2.31944 14.102 2.20833 14.2227 2.125C14.3434 2.04167 14.4775 2 14.625 2C14.9097 2 15.1233 2.11111 15.2656 2.33333C15.408 2.55556 15.4236 2.79167 15.3125 3.04167L13.1458 8.08333C13.0208 8.36111 12.8368 8.58333 12.5938 8.75C12.3507 8.91667 12.0764 9 11.7708 9H5.10417L4.22917 10.5H13.75C13.9625 10.5 14.1406 10.5715 14.2844 10.7144C14.4281 10.8573 14.5 11.0344 14.5 11.2456C14.5 11.4569 14.4281 11.6354 14.2844 11.7812C14.1406 11.9271 13.9625 12 13.75 12H4.25C3.66667 12 3.22917 11.7465 2.9375 11.2396C2.64583 10.7326 2.64583 10.2361 2.9375 9.75L4.02083 7.875L1.29167 1.5Z" fill="#FF3B30"/>
</g>
</g>
<defs>
<clipPath id="clip0_748_6242">
<rect width="16" height="16" fill="white" transform="translate(0.5)"/>
</clipPath>
</defs>
</svg>
