<svg width="16" height="16" viewBox="0 0 16 16" fill="none" xmlns="http://www.w3.org/2000/svg">
<g clip-path="url(#clip0_624_274)">
<mask id="mask0_624_274" style="mask-type:alpha" maskUnits="userSpaceOnUse" x="0" y="0" width="24" height="24">
<rect width="24" height="24" fill="#D9D9D9"/>
</mask>
<g mask="url(#mask0_624_274)">
<path d="M8.66667 14V12.6667H10V14H8.66667ZM7.33333 12.6667V9.33333H8.66667V12.6667H7.33333ZM12.6667 10.6667V8H14V10.6667H12.6667ZM11.3333 8V6.66667H12.6667V8H11.3333ZM3.33333 9.33333V8H4.66667V9.33333H3.33333ZM2 8V6.66667H3.33333V8H2ZM8 3.33333V2H9.33333V3.33333H8ZM3 5H5V3H3V5ZM2 5.33333V2.66667C2 2.47778 2.06389 2.31944 2.19167 2.19167C2.31944 2.06389 2.47778 2 2.66667 2H5.33333C5.52222 2 5.68056 2.06389 5.80833 2.19167C5.93611 2.31944 6 2.47778 6 2.66667V5.33333C6 5.52222 5.93611 5.68056 5.80833 5.80833C5.68056 5.93611 5.52222 6 5.33333 6H2.66667C2.47778 6 2.31944 5.93611 2.19167 5.80833C2.06389 5.68056 2 5.52222 2 5.33333ZM3 13H5V11H3V13ZM2 13.3333V10.6667C2 10.4778 2.06389 10.3194 2.19167 10.1917C2.31944 10.0639 2.47778 10 2.66667 10H5.33333C5.52222 10 5.68056 10.0639 5.80833 10.1917C5.93611 10.3194 6 10.4778 6 10.6667V13.3333C6 13.5222 5.93611 13.6806 5.80833 13.8083C5.68056 13.9361 5.52222 14 5.33333 14H2.66667C2.47778 14 2.31944 13.9361 2.19167 13.8083C2.06389 13.6806 2 13.5222 2 13.3333ZM11 5H13V3H11V5ZM10 5.33333V2.66667C10 2.47778 10.0639 2.31944 10.1917 2.19167C10.3194 2.06389 10.4778 2 10.6667 2H13.3333C13.5222 2 13.6806 2.06389 13.8083 2.19167C13.9361 2.31944 14 2.47778 14 2.66667V5.33333C14 5.52222 13.9361 5.68056 13.8083 5.80833C13.6806 5.93611 13.5222 6 13.3333 6H10.6667C10.4778 6 10.3194 5.93611 10.1917 5.80833C10.0639 5.68056 10 5.52222 10 5.33333ZM11.3333 14V12H10V10.6667H12.6667V12.6667H14V14H11.3333ZM8.66667 9.33333V8H11.3333V9.33333H8.66667ZM6 9.33333V8H4.66667V6.66667H8.66667V8H7.33333V9.33333H6ZM6.66667 6V3.33333H8V4.66667H9.33333V6H6.66667ZM3.5 4.5V3.5H4.5V4.5H3.5ZM3.5 12.5V11.5H4.5V12.5H3.5ZM11.5 4.5V3.5H12.5V4.5H11.5Z" fill="white"/>
</g>
</g>
<defs>
<clipPath id="clip0_624_274">
<rect width="16" height="16" fill="white"/>
</clipPath>
</defs>
</svg>
