<svg width="16" height="16" viewBox="0 0 16 16" fill="none" xmlns="http://www.w3.org/2000/svg">
<g clip-path="url(#clip0_298_4137)">
<mask id="mask0_298_4137" style="mask-type:alpha" maskUnits="userSpaceOnUse" x="-2" y="-2" width="20" height="20">
<rect x="-2" y="-2" width="20" height="20" fill="#D9D9D9"/>
</mask>
<g mask="url(#mask0_298_4137)">
<path d="M7.25 3.25H5.25C5.0375 3.25 4.85938 3.17854 4.71563 3.03563C4.57188 2.89271 4.5 2.71563 4.5 2.50438C4.5 2.29313 4.57188 2.11458 4.71563 1.96875C4.85938 1.82292 5.0375 1.75 5.25 1.75H7.25V-0.25C7.25 -0.4625 7.32146 -0.640625 7.46438 -0.784376C7.60729 -0.928126 7.78438 -1 7.99563 -1C8.20688 -1 8.38542 -0.928126 8.53125 -0.784376C8.67708 -0.640625 8.75 -0.4625 8.75 -0.25V1.75H10.75C10.9625 1.75 11.1406 1.82146 11.2844 1.96437C11.4281 2.10729 11.5 2.28437 11.5 2.49562C11.5 2.70687 11.4281 2.88542 11.2844 3.03125C11.1406 3.17708 10.9625 3.25 10.75 3.25H8.75V5.25C8.75 5.4625 8.67854 5.64063 8.53563 5.78438C8.39271 5.92813 8.21563 6 8.00438 6C7.79313 6 7.61458 5.92813 7.46875 5.78438C7.32292 5.64063 7.25 5.4625 7.25 5.25V3.25ZM3.49563 16C3.08188 16 2.72917 15.8527 2.4375 15.5581C2.14583 15.2635 2 14.9094 2 14.4956C2 14.0819 2.14729 13.7292 2.44188 13.4375C2.73646 13.1458 3.09062 13 3.50437 13C3.91813 13 4.27083 13.1473 4.5625 13.4419C4.85417 13.7365 5 14.0906 5 14.5044C5 14.9181 4.85271 15.2708 4.55813 15.5625C4.26354 15.8542 3.90938 16 3.49563 16ZM12.4956 16C12.0819 16 11.7292 15.8527 11.4375 15.5581C11.1458 15.2635 11 14.9094 11 14.4956C11 14.0819 11.1473 13.7292 11.4419 13.4375C11.7365 13.1458 12.0906 13 12.5044 13C12.9181 13 13.2708 13.1473 13.5625 13.4419C13.8542 13.7365 14 14.0906 14 14.5044C14 14.9181 13.8527 15.2708 13.5581 15.5625C13.2635 15.8542 12.9094 16 12.4956 16ZM0.791667 1.5H-0.25C-0.4625 1.5 -0.640625 1.42854 -0.784375 1.28563C-0.928125 1.14271 -1 0.965626 -1 0.754375C-1 0.543125 -0.928125 0.364583 -0.784375 0.21875C-0.640625 0.0729166 -0.4625 0 -0.25 0H1.27083C1.42361 0 1.55903 0.0416666 1.67708 0.125C1.79514 0.208333 1.88889 0.319444 1.95833 0.458333L5 7.5H11.2708L13.4375 2.45833C13.5069 2.31944 13.602 2.20833 13.7227 2.125C13.8434 2.04167 13.9775 2 14.125 2C14.4097 2 14.6233 2.11111 14.7656 2.33333C14.908 2.55556 14.9236 2.79167 14.8125 3.04167L12.6458 8.08333C12.5208 8.36111 12.3368 8.58333 12.0938 8.75C11.8507 8.91667 11.5764 9 11.2708 9H4.60417L3.72917 10.5H13.25C13.4625 10.5 13.6406 10.5715 13.7844 10.7144C13.9281 10.8573 14 11.0344 14 11.2456C14 11.4569 13.9281 11.6354 13.7844 11.7812C13.6406 11.9271 13.4625 12 13.25 12H3.75C3.16667 12 2.72917 11.7465 2.4375 11.2396C2.14583 10.7326 2.14583 10.2361 2.4375 9.75L3.52083 7.875L0.791667 1.5Z" fill="#278FFF"/>
</g>
</g>
<defs>
<clipPath id="clip0_298_4137">
<rect width="16" height="16" fill="white"/>
</clipPath>
</defs>
</svg>
