<svg width="40" height="40" viewBox="0 0 40 40" fill="none" xmlns="http://www.w3.org/2000/svg">
<mask id="mask0_458_6358" style="mask-type:alpha" maskUnits="userSpaceOnUse" x="-1" y="0" width="41" height="41">
<rect x="-0.673828" y="0.664062" width="40" height="40" fill="#D9D9D9"/>
</mask>
<g mask="url(#mask0_458_6358)">
<path d="M23.3274 13.4557C23.3274 12.4002 22.9524 11.5321 22.2024 10.8516C21.4524 10.171 20.4941 9.83073 19.3274 9.83073C18.6052 9.83073 17.9455 9.99045 17.3482 10.3099C16.751 10.6293 16.2302 11.0807 15.7857 11.6641C15.3968 12.1918 14.9038 12.5252 14.3066 12.6641C13.7093 12.803 13.1468 12.7196 12.6191 12.4141C12.0635 12.0807 11.7302 11.6571 11.6191 11.1432C11.508 10.6293 11.6468 10.0946 12.0357 9.53906C12.8413 8.31684 13.8899 7.36545 15.1816 6.6849C16.4732 6.00434 17.8552 5.66406 19.3274 5.66406C21.7996 5.66406 23.8135 6.37934 25.3691 7.8099C26.9246 9.24045 27.7024 11.0807 27.7024 13.3307C27.7024 14.4974 27.4455 15.5599 26.9316 16.5182C26.4177 17.4766 25.4941 18.5807 24.1607 19.8307C23.2718 20.6363 22.6746 21.2891 22.3691 21.7891C22.0635 22.2891 21.8552 22.8585 21.7441 23.4974C21.633 24.1363 21.3621 24.6571 20.9316 25.0599C20.501 25.4627 19.9941 25.6641 19.4107 25.6641C18.7996 25.6641 18.2857 25.4627 17.8691 25.0599C17.4524 24.6571 17.2441 24.178 17.2441 23.6224C17.2441 22.5946 17.4871 21.6293 17.9732 20.7266C18.4593 19.8238 19.2302 18.928 20.2857 18.0391C21.4802 16.9835 22.2857 16.1502 22.7024 15.5391C23.1191 14.928 23.3274 14.2335 23.3274 13.4557ZM19.3274 34.6641C18.4941 34.6641 17.7857 34.3724 17.2024 33.7891C16.6191 33.2057 16.3274 32.4974 16.3274 31.6641C16.3274 30.8307 16.6191 30.1224 17.2024 29.5391C17.7857 28.9557 18.4941 28.6641 19.3274 28.6641C20.1607 28.6641 20.8691 28.9557 21.4524 29.5391C22.0357 30.1224 22.3274 30.8307 22.3274 31.6641C22.3274 32.4974 22.0357 33.2057 21.4524 33.7891C20.8691 34.3724 20.1607 34.6641 19.3274 34.6641Z" fill="white"/>
</g>
</svg>
