<svg xmlns="http://www.w3.org/2000/svg" width="16" height="16" viewBox="0 0 16 16" fill="none">
  <mask id="mask0_494_5231" style="mask-type:alpha" maskUnits="userSpaceOnUse" x="-1" y="0" width="17" height="17">
    <rect x="-0.269531" y="0.265625" width="16" height="16" fill="#D9D9D9"/>
  </mask>
  <g mask="url(#mask0_494_5231)">
    <path d="M9.33096 5.38229C9.33096 4.96007 9.18096 4.61285 8.88096 4.34063C8.58096 4.0684 8.19763 3.93229 7.73096 3.93229C7.44207 3.93229 7.17818 3.99618 6.93929 4.12396C6.70041 4.25174 6.49207 4.43229 6.31429 4.66563C6.15874 4.87674 5.96152 5.01007 5.72263 5.06562C5.48374 5.12118 5.25874 5.08785 5.04763 4.96563C4.82541 4.83229 4.69207 4.66285 4.64763 4.45729C4.60318 4.25174 4.65874 4.03785 4.81429 3.81563C5.13652 3.32674 5.55596 2.94618 6.07263 2.67396C6.58929 2.40174 7.14207 2.26562 7.73096 2.26562C8.71985 2.26562 9.5254 2.55174 10.1476 3.12396C10.7698 3.69618 11.081 4.43229 11.081 5.33229C11.081 5.79896 10.9782 6.22396 10.7726 6.60729C10.5671 6.99063 10.1976 7.43229 9.66429 7.93229C9.30874 8.25451 9.06985 8.51562 8.94763 8.71563C8.82541 8.91563 8.74207 9.1434 8.69763 9.39896C8.65318 9.65451 8.54485 9.86285 8.37263 10.024C8.20041 10.1851 7.99763 10.2656 7.76429 10.2656C7.51985 10.2656 7.31429 10.1851 7.14763 10.024C6.98096 9.86285 6.89763 9.67118 6.89763 9.44896C6.89763 9.03785 6.99485 8.65174 7.18929 8.29063C7.38374 7.92951 7.69207 7.57118 8.11429 7.21563C8.59207 6.7934 8.91429 6.46007 9.08096 6.21563C9.24763 5.97118 9.33096 5.6934 9.33096 5.38229ZM7.73096 13.8656C7.39763 13.8656 7.11429 13.749 6.88096 13.5156C6.64763 13.2823 6.53096 12.999 6.53096 12.6656C6.53096 12.3323 6.64763 12.049 6.88096 11.8156C7.11429 11.5823 7.39763 11.4656 7.73096 11.4656C8.06429 11.4656 8.34763 11.5823 8.58096 11.8156C8.81429 12.049 8.93096 12.3323 8.93096 12.6656C8.93096 12.999 8.81429 13.2823 8.58096 13.5156C8.34763 13.749 8.06429 13.8656 7.73096 13.8656Z" fill="white" fill-opacity="0.6"/>
  </g>
</svg>