<svg width="16" height="16" viewBox="0 0 16 16" fill="none" xmlns="http://www.w3.org/2000/svg">
<g clip-path="url(#clip0_429_3738)">
<mask id="mask0_429_3738" style="mask-type:alpha" maskUnits="userSpaceOnUse" x="0" y="0" width="16" height="16">
<rect width="16" height="16" fill="#D9D9D9"/>
</mask>
<g mask="url(#mask0_429_3738)">
<path d="M11.3382 15.5832C10.7145 15.5832 10.1849 15.365 9.74949 14.9288C9.31421 14.4925 9.09658 13.9628 9.09658 13.3396C9.09658 13.2146 9.13234 13.0052 9.20387 12.7113L4.19428 9.61838C3.99345 9.81282 3.76144 9.9656 3.49824 10.0767C3.23519 10.1878 2.95331 10.2434 2.65262 10.2434C2.03164 10.2434 1.5038 10.0244 1.06908 9.5863C0.634353 9.14824 0.416992 8.61942 0.416992 7.99984C0.416992 7.38025 0.634353 6.85143 1.06908 6.41338C1.5038 5.97532 2.03164 5.7563 2.65262 5.7563C2.95456 5.7563 3.23678 5.81185 3.49928 5.92296C3.76178 6.03407 3.99345 6.18685 4.19428 6.3813L9.20387 3.2963C9.17081 3.1938 9.14463 3.09123 9.12533 2.98859C9.10616 2.88595 9.09658 2.77643 9.09658 2.66005C9.09658 2.03685 9.31484 1.50713 9.75137 1.07088C10.188 0.634628 10.7182 0.416504 11.342 0.416504C11.9657 0.416504 12.4953 0.634837 12.9305 1.0715C13.366 1.50803 13.5837 2.03817 13.5837 2.66192C13.5837 3.28567 13.3655 3.81525 12.9293 4.25067C12.493 4.68595 11.9633 4.90359 11.3401 4.90359C11.0366 4.90359 10.7554 4.84671 10.4964 4.73296C10.2372 4.61921 10.0072 4.46512 9.80637 4.27067L4.79678 7.36359C4.82984 7.46623 4.85602 7.5688 4.87533 7.6713C4.89449 7.77393 4.90408 7.88345 4.90408 7.99984C4.90408 8.11623 4.89449 8.22574 4.87533 8.32838C4.85602 8.43088 4.82984 8.53345 4.79678 8.63609L9.80637 11.729C10.0072 11.5346 10.2375 11.3805 10.4972 11.2667C10.7569 11.153 11.0379 11.0961 11.3401 11.0961C11.9633 11.0961 12.493 11.3144 12.9293 11.7509C13.3655 12.1875 13.5837 12.7178 13.5837 13.3415C13.5837 13.9653 13.3653 14.4948 12.9287 14.93C12.4921 15.3655 11.962 15.5832 11.3382 15.5832Z" fill="white"/>
</g>
</g>
<defs>
<clipPath id="clip0_429_3738">
<rect width="16" height="16" fill="white"/>
</clipPath>
</defs>
</svg>
