<svg width="16" height="16" viewBox="0 0 16 16" fill="none" xmlns="http://www.w3.org/2000/svg">
<g clip-path="url(#clip0_482_5225)">
<mask id="mask0_482_5225" style="mask-type:alpha" maskUnits="userSpaceOnUse" x="0" y="0" width="16" height="16">
<rect width="16" height="16" fill="#D9D9D9"/>
</mask>
<g mask="url(#mask0_482_5225)">
<path d="M11.3382 15.5837C10.7145 15.5837 10.1849 15.3655 9.74949 14.9293C9.31421 14.493 9.09658 13.9633 9.09658 13.3401C9.09658 13.2151 9.13234 13.0057 9.20387 12.7118L4.19428 9.61887C3.99345 9.81331 3.76144 9.96609 3.49824 10.0772C3.23519 10.1883 2.95331 10.2439 2.65262 10.2439C2.03164 10.2439 1.5038 10.0248 1.06908 9.58678C0.634353 9.14873 0.416992 8.61991 0.416992 8.00033C0.416992 7.38074 0.634353 6.85192 1.06908 6.41387C1.5038 5.97581 2.03164 5.75678 2.65262 5.75678C2.95456 5.75678 3.23678 5.81234 3.49928 5.92345C3.76178 6.03456 3.99345 6.18734 4.19428 6.38178L9.20387 3.29678C9.17081 3.19428 9.14463 3.09172 9.12533 2.98908C9.10616 2.88644 9.09658 2.77692 9.09658 2.66053C9.09658 2.03734 9.31484 1.50762 9.75137 1.07137C10.188 0.635117 10.7182 0.416992 11.342 0.416992C11.9657 0.416992 12.4953 0.635326 12.9305 1.07199C13.366 1.50852 13.5837 2.03866 13.5837 2.66241C13.5837 3.28616 13.3655 3.81574 12.9293 4.25116C12.493 4.68644 11.9633 4.90408 11.3401 4.90408C11.0366 4.90408 10.7554 4.8472 10.4964 4.73345C10.2372 4.6197 10.0072 4.4656 9.80637 4.27116L4.79678 7.36408C4.82984 7.46671 4.85602 7.56928 4.87533 7.67178C4.89449 7.77442 4.90408 7.88394 4.90408 8.00033C4.90408 8.11671 4.89449 8.22623 4.87533 8.32887C4.85602 8.43137 4.82984 8.53394 4.79678 8.63658L9.80637 11.7295C10.0072 11.535 10.2375 11.381 10.4972 11.2672C10.7569 11.1535 11.0379 11.0966 11.3401 11.0966C11.9633 11.0966 12.493 11.3148 12.9293 11.7514C13.3655 12.188 13.5837 12.7182 13.5837 13.342C13.5837 13.9657 13.3653 14.4953 12.9287 14.9305C12.4921 15.366 11.962 15.5837 11.3382 15.5837Z" fill="white"/>
</g>
</g>
<defs>
<clipPath id="clip0_482_5225">
<rect width="16" height="16" fill="white"/>
</clipPath>
</defs>
</svg>
