<svg width="16" height="16" viewBox="0 0 16 16" fill="none" xmlns="http://www.w3.org/2000/svg">
<g clip-path="url(#clip0_482_5214)">
<mask id="mask0_482_5214" style="mask-type:alpha" maskUnits="userSpaceOnUse" x="0" y="0" width="20" height="20">
<rect width="20" height="20" fill="#D9D9D9"/>
</mask>
<g mask="url(#mask0_482_5214)">
<path d="M6.0002 12.8002H4.40453C4.07331 12.8002 3.78981 12.6823 3.55403 12.4464C3.31814 12.2106 3.2002 11.9271 3.2002 11.5959V10.0002L2.0502 8.8502C1.92797 8.72797 1.83908 8.59364 1.78353 8.4472C1.72797 8.30075 1.7002 8.15175 1.7002 8.0002C1.7002 7.84864 1.72797 7.69964 1.78353 7.5532C1.83908 7.40675 1.92797 7.27242 2.0502 7.1502L3.2002 6.0002V4.40453C3.2002 4.07331 3.31814 3.78981 3.55403 3.55403C3.78981 3.31814 4.07331 3.2002 4.40453 3.2002H6.0002L7.1502 2.0502C7.27242 1.92797 7.40675 1.83908 7.5532 1.78353C7.69964 1.72797 7.84864 1.7002 8.0002 1.7002C8.15175 1.7002 8.30075 1.72797 8.4472 1.78353C8.59364 1.83908 8.72797 1.92797 8.8502 2.0502L10.0002 3.2002H11.5959C11.9271 3.2002 12.2106 3.31814 12.4464 3.55403C12.6823 3.78981 12.8002 4.07331 12.8002 4.40453V6.0002L13.9502 7.1502C14.0724 7.27242 14.1613 7.40675 14.2169 7.5532C14.2724 7.69964 14.3002 7.84864 14.3002 8.0002C14.3002 8.15175 14.2724 8.30075 14.2169 8.4472C14.1613 8.59364 14.0724 8.72797 13.9502 8.8502L12.8002 10.0002V11.5959C12.8002 11.9271 12.6823 12.2106 12.4464 12.4464C12.2106 12.6823 11.9271 12.8002 11.5959 12.8002H10.0002L8.8502 13.9502C8.72797 14.0724 8.59364 14.1613 8.4472 14.2169C8.30075 14.2724 8.15175 14.3002 8.0002 14.3002C7.84864 14.3002 7.69964 14.2724 7.5532 14.2169C7.40675 14.1613 7.27242 14.0724 7.1502 13.9502L6.0002 12.8002Z" fill="white"/>
</g>
</g>
<defs>
<clipPath id="clip0_482_5214">
<rect width="16" height="16" fill="white"/>
</clipPath>
</defs>
</svg>
