<svg width="16" height="16" viewBox="0 0 16 16" fill="none" xmlns="http://www.w3.org/2000/svg">
<path d="M0.978385 8.07856C4.80007 6.41389 7.34786 5.31633 8.62175 4.78609C12.2632 3.27196 13.0189 3.00899 13.5125 3.00008C13.6211 2.99834 13.8627 3.02517 14.0204 3.15266C14.1515 3.26018 14.1884 3.40559 14.2068 3.50769C14.2232 3.60968 14.2457 3.84214 14.2273 4.0236C14.0307 6.09624 13.1766 11.1259 12.7425 13.4473C12.5602 14.4296 12.1977 14.7589 11.8475 14.7911C11.0856 14.8611 10.508 14.2881 9.77072 13.8049C8.61766 13.0486 7.96637 12.5779 6.84608 11.84C5.55171 10.9872 6.39141 10.5184 7.12872 9.75244C7.32123 9.55193 10.676 6.50134 10.7394 6.22465C10.7476 6.19004 10.7558 6.06101 10.678 5.99301C10.6022 5.92481 10.4896 5.94816 10.4077 5.96659C10.2909 5.99281 8.44972 7.211 4.8779 9.62095C4.35564 9.98018 3.88254 10.1553 3.45654 10.1461C2.98958 10.136 2.08843 9.88146 1.41872 9.66396C0.599494 9.3971 -0.0538386 9.25599 0.00350712 8.80275C0.03218 8.56681 0.357822 8.32535 0.978385 8.07856Z" fill="white"/>
</svg>
