<svg width="12" height="10" viewBox="0 0 12 10" fill="none" xmlns="http://www.w3.org/2000/svg">
<path fill-rule="evenodd" clip-rule="evenodd" d="M10.3246 0.987494L4.42461 6.88749L2.52461 4.98749C2.34128 4.80416 2.10794 4.71249 1.82461 4.71249C1.54128 4.71249 1.30794 4.80416 1.12461 4.98749C0.941276 5.17083 0.849609 5.40416 0.849609 5.68749C0.849609 5.97083 0.941276 6.20416 1.12461 6.38749L3.72461 8.98749C3.92461 9.18749 4.15794 9.28749 4.42461 9.28749C4.69128 9.28749 4.92461 9.18749 5.12461 8.98749L11.7246 2.38749C11.9079 2.20416 11.9996 1.97083 11.9996 1.68749C11.9996 1.40416 11.9079 1.17083 11.7246 0.987494C11.5413 0.804161 11.3079 0.712494 11.0246 0.712494C10.7413 0.712494 10.5079 0.804161 10.3246 0.987494Z" fill="#278FFF"/>
</svg>
