<svg width="24" height="24" viewBox="0 0 24 24" fill="none" xmlns="http://www.w3.org/2000/svg">
<mask id="mask0_469_7453" style="mask-type:alpha" maskUnits="userSpaceOnUse" x="4" y="4" width="16" height="16">
<rect x="4" y="4" width="16" height="16" fill="#D9D9D9"/>
</mask>
<g mask="url(#mask0_469_7453)">
<path d="M7.5999 17.6C7.2699 17.6 6.9874 17.4825 6.7524 17.2475C6.5174 17.0125 6.3999 16.73 6.3999 16.4V7.6C6.3999 7.27 6.5174 6.9875 6.7524 6.7525C6.9874 6.5175 7.2699 6.4 7.5999 6.4H16.3999C16.7299 6.4 17.0124 6.5175 17.2474 6.7525C17.4824 6.9875 17.5999 7.27 17.5999 7.6H12.3999C11.7332 7.6 11.1666 7.83333 10.6999 8.3C10.2332 8.76667 9.9999 9.33333 9.9999 10V14C9.9999 14.6667 10.2332 15.2333 10.6999 15.7C11.1666 16.1667 11.7332 16.4 12.3999 16.4H17.5999C17.5999 16.7333 17.4824 17.0167 17.2474 17.25C17.0124 17.4833 16.7299 17.6 16.3999 17.6H7.5999ZM12.3999 15.2C12.0699 15.2 11.7874 15.0825 11.5524 14.8475C11.3174 14.6125 11.1999 14.33 11.1999 14V10C11.1999 9.67 11.3174 9.3875 11.5524 9.1525C11.7874 8.9175 12.0699 8.8 12.3999 8.8H17.1999C17.5299 8.8 17.8124 8.9175 18.0474 9.1525C18.2824 9.3875 18.3999 9.67 18.3999 10V14C18.3999 14.33 18.2824 14.6125 18.0474 14.8475C17.8124 15.0825 17.5299 15.2 17.1999 15.2H12.3999ZM14.7999 13C15.0777 13 15.3138 12.9028 15.5082 12.7083C15.7027 12.5139 15.7999 12.2778 15.7999 12C15.7999 11.7222 15.7027 11.4861 15.5082 11.2917C15.3138 11.0972 15.0777 11 14.7999 11C14.5221 11 14.286 11.0972 14.0916 11.2917C13.8971 11.4861 13.7999 11.7222 13.7999 12C13.7999 12.2778 13.8971 12.5139 14.0916 12.7083C14.286 12.9028 14.5221 13 14.7999 13Z" fill="#278FFF"/>
</g>
</svg>
